<svg width="24" height="25" viewBox="0 0 24 25" fill="none" xmlns="http://www.w3.org/2000/svg">
<path d="M12 6.3252C12 6.85563 12.2107 7.36434 12.5858 7.73941C12.9609 8.11448 13.4696 8.3252 14 8.3252C14.5304 8.3252 15.0391 8.11448 15.4142 7.73941C15.7893 7.36434 16 6.85563 16 6.3252M12 6.3252C12 5.79476 12.2107 5.28605 12.5858 4.91098C12.9609 4.53591 13.4696 4.3252 14 4.3252C14.5304 4.3252 15.0391 4.53591 15.4142 4.91098C15.7893 5.28605 16 5.79476 16 6.3252M12 6.3252H4M16 6.3252H20M6 12.3252C6 12.8556 6.21071 13.3643 6.58579 13.7394C6.96086 14.1145 7.46957 14.3252 8 14.3252C8.53043 14.3252 9.03914 14.1145 9.41421 13.7394C9.78929 13.3643 10 12.8556 10 12.3252M6 12.3252C6 11.7948 6.21071 11.2861 6.58579 10.911C6.96086 10.5359 7.46957 10.3252 8 10.3252C8.53043 10.3252 9.03914 10.5359 9.41421 10.911C9.78929 11.2861 10 11.7948 10 12.3252M6 12.3252H4M10 12.3252H20M15 18.3252C15 18.8556 15.2107 19.3643 15.5858 19.7394C15.9609 20.1145 16.4696 20.3252 17 20.3252C17.5304 20.3252 18.0391 20.1145 18.4142 19.7394C18.7893 19.3643 19 18.8556 19 18.3252M15 18.3252C15 17.7948 15.2107 17.2861 15.5858 16.911C15.9609 16.5359 16.4696 16.3252 17 16.3252C17.5304 16.3252 18.0391 16.5359 18.4142 16.911C18.7893 17.2861 19 17.7948 19 18.3252M15 18.3252H4M19 18.3252H20" stroke="#667180" stroke-width="2" stroke-linecap="round" stroke-linejoin="round"/>
</svg>
