<svg width="1903" height="1975" viewBox="0 0 1903 1975" fill="none" xmlns="http://www.w3.org/2000/svg">
<path d="M1081.3 354.974C1081.3 354.974 1493.54 419.476 1462.28 1006.9C1462.16 1009.07 1509.94 1040.8 1513.68 1044.18C1547 1074.32 1574.95 1112.91 1587.18 1158.05C1630.7 1318.79 1475.09 1484.42 1349.25 1528.39C1302.25 1544.81 1252.56 1552.78 1202.78 1554.23C879.172 1563.65 450.729 1357.97 428.724 956.286C427.936 941.874 427.742 927.446 428.113 913.052C430.063 836.782 448.471 762.502 476.214 693.534C476.202 693.536 656.305 246.808 1081.3 354.974Z" fill="#EFCC9F"/>
<path opacity="0.3" d="M1266.49 1041.79C1266.49 1041.79 1331.89 979.575 1382.51 1038.07L1266.49 1041.79Z" fill="#A3734F"/>
<path d="M656.742 1351.91C439.17 1460.96 241.564 1187.29 304.77 1033.5C345.089 935.407 462.75 927.812 530.964 1017.44C571.222 1070.34 603.806 1137.96 622.316 1202.63" fill="#EFCC9F"/>
<path opacity="0.3" d="M477.425 1107.7C505.435 1136.21 527.958 1178.49 555.632 1202.08C550.504 1162.62 542.327 1120.48 523.157 1084.92C503.692 1048.8 468.308 1019.04 432.291 1021.48C387.655 1024.51 350.923 1076.51 346.215 1123.66C349.029 1095.44 405.76 1076.36 427.418 1079.04C461.354 1143 474.531 1269.03 474.531 1269.03C502.755 1197.69 491.297 1141.57 477.425 1107.7Z" fill="#A3734F"/>
<path d="M1362.74 1150.37C1372.19 1155.8 1438.26 1072.8 1482.25 1098.05C1497.1 1106.57 1508.43 1121.11 1516.94 1136.82C1535.63 1171.38 1542.03 1213.36 1534.5 1252.09C1523.84 1306.85 1486.9 1351.69 1443.45 1381.4C1326.53 1461.34 1233.77 1446.23 1108.98 1399.96C1010.75 1363.54 876.916 1288.57 904.643 1153.3C953.449 915.2 1362.61 1150.3 1362.74 1150.37Z" fill="#873C41"/>
<path d="M1024.23 1135.15C1056.01 1154.88 1094.7 1156.91 1129.4 1149.04C1136.03 1147.53 1141.37 1153.11 1143.02 1159.51C1159.96 1225.36 1256.03 1259.73 1304.2 1217.51C1307.94 1214.23 1314.57 1213.45 1318.49 1217.17C1344.49 1241.84 1386.15 1248.54 1416.74 1231.84C1459.94 1208.27 1459.73 1142.04 1447.96 1095.91C1409.89 1107.54 1369.92 1154.49 1362.74 1150.35C1362.64 1150.29 1111.46 1006.02 979.224 1058.07C982.028 1090.04 996.706 1118.05 1024.23 1135.15Z" fill="white"/>
<path d="M1384.5 1391.27C1315.8 1328.21 1231.32 1292.98 1145.67 1267.99C1072.4 1246.61 989.91 1232.75 915.753 1253.97C950.118 1327.74 1038.54 1373.82 1108.98 1399.94C1218.14 1440.42 1302.79 1457.05 1400.54 1407.08C1395.21 1401.79 1390.02 1396.34 1384.5 1391.27Z" fill="#EE7E8B"/>
<path d="M1167.9 943.002C1167.83 980.233 1148.38 1010.45 1108 1004.26C1078.94 996.474 1059.59 975.981 1059.67 936.936C1059.75 896.026 1083.57 869.478 1108.27 869.432C1141.28 869.369 1167.97 905.771 1167.9 943.002Z" fill="#2A1200"/>
<path d="M1443.17 942.329C1443.12 967.285 1431.83 994.086 1402.93 991.006C1378.67 988.42 1372.48 956.573 1372.51 940.896C1372.56 913.474 1386.3 887.567 1406.34 887.529C1427.89 887.488 1443.22 917.374 1443.17 942.329Z" fill="#2A1200"/>
<path d="M1185.98 766.574C1147.05 747.287 1098.41 749.081 1059.37 771.072C1046.78 778.162 1038.66 795.11 1045.11 809.479C1051.06 822.769 1066.77 831.11 1080.25 823.506C1084.29 821.227 1088.41 819.157 1092.66 817.37C1093.98 816.812 1097.38 816.147 1098.7 815.131C1099.31 814.95 1099.92 814.767 1100.54 814.601C1104.38 813.565 1108.26 812.728 1112.17 812.088C1114.41 811.724 1116.65 811.435 1118.89 811.2C1119.6 811.129 1120.3 811.071 1121.02 811.015C1122.86 811.248 1125.14 810.921 1126.87 810.976C1129.12 811.047 1131.35 811.191 1133.59 811.4C1137.49 811.766 1141.37 812.332 1145.21 813.104C1145.75 813.212 1146.27 813.329 1146.81 813.45C1148.82 814.078 1150.83 814.658 1152.82 815.359C1157.05 816.855 1161.16 818.644 1165.19 820.632C1177.77 826.87 1195.52 818.057 1200.32 803.855C1205.59 788.215 1199.46 773.255 1185.98 766.574Z" fill="#451E00"/>
<path d="M1457.32 780.13C1434.04 767.489 1407.34 764.647 1383.3 771.591C1376.82 773.466 1370.9 779.12 1368.12 785.371C1365.38 791.529 1364.82 800.347 1367.52 807.045C1370.33 813.996 1375.11 820.608 1381.86 823.907C1388.7 827.253 1395.7 828.113 1402.74 826.087C1403.9 825.752 1405.08 825.558 1406.26 825.282C1409.91 824.867 1413.59 824.758 1417.3 824.915C1421.75 825.589 1426.14 826.674 1430.48 828.166C1431.98 828.86 1433.53 829.476 1435.01 830.275C1441.38 833.731 1449.36 834.556 1455.89 832.456C1462.14 830.444 1468.55 825.068 1471.07 818.665C1473.68 812.035 1474.55 804.154 1471.66 796.992C1468.79 789.851 1464.07 783.789 1457.32 780.13Z" fill="#451E00"/>
<path d="M1146.07 305.684C1234.52 393.933 1270.58 501.461 1277.55 544.194C1210.75 603.896 1124.6 737.898 1013.98 815.5C925.351 877.671 824.147 910.755 742.442 926.36C679.984 998.827 695.918 1078.31 650.042 1081.17C622.153 1016.57 570.653 911.203 427.223 958.905C306.407 999.086 300.52 1135.44 339.366 1205C361.279 1243.76 450.093 1330.67 593.523 1311.59L686.086 1391.54C677.121 1408.43 660.202 1432.64 605.22 1456.5C536.493 1486.31 216.763 1459.48 186.882 1265.69C112.179 1201.09 -4.95565 1020.62 124.131 815.5C163.675 752.665 219.334 707.652 285.231 678.68C284.429 652.997 284.399 623.219 285.49 588.915C291.467 401.088 467.766 249.038 605.22 216.243C742.674 183.448 1035.51 195.373 1146.07 305.684Z" fill="#3A1A00"/>
<path d="M1423.45 684.592C1374.51 610.607 1309.97 560.76 1274.41 543.518C1260.61 450.722 1176.62 341.832 1136.35 298.987C1516.02 156.345 1612.76 616.668 1599.17 791.183C1669.45 929.123 1621.13 1125.58 1596.03 1203.43C1583.48 1098.1 1497.71 1027.88 1457.97 1010.63C1475.54 915.329 1442.28 753.562 1423.45 684.592Z" fill="#3A1A00"/>
</svg>
